<?xml version="1.0" encoding="UTF-8" standalone="no"?>
<!-- Created with Inkscape (http://www.inkscape.org/) -->

<svg
   xmlns:dc="http://purl.org/dc/elements/1.1/"
   xmlns:cc="http://creativecommons.org/ns#"
   xmlns:rdf="http://www.w3.org/1999/02/22-rdf-syntax-ns#"
   xmlns:svg="http://www.w3.org/2000/svg"
   xmlns="http://www.w3.org/2000/svg"
   xmlns:xlink="http://www.w3.org/1999/xlink"
   xmlns:sodipodi="http://sodipodi.sourceforge.net/DTD/sodipodi-0.dtd"
   xmlns:inkscape="http://www.inkscape.org/namespaces/inkscape"
   width="134.72025"
   height="39.039448"
   viewBox="0 0 134.72024 39.039445"
   id="svg5552"
   version="1.1"
   inkscape:version="0.48.5 r10040"
   inkscape:export-filename="C:\temp\logo_lang.png"
   inkscape:export-xdpi="90"
   inkscape:export-ydpi="90"
   sodipodi:docname="logo_long_path.svg">
  <defs
     id="defs5554">
    <linearGradient
       inkscape:collect="always"
       xlink:href="#linearGradient4160"
       id="linearGradient11357-0-1-4"
       gradientUnits="userSpaceOnUse"
       x1="160.54883"
       y1="312.05927"
       x2="216.97852"
       y2="310.45212" />
    <linearGradient
       id="linearGradient4160"
       inkscape:collect="always">
      <stop
         id="stop4162"
         offset="0"
         style="stop-color:#000000;stop-opacity:1;" />
      <stop
         id="stop4164"
         offset="1"
         style="stop-color:#000000;stop-opacity:0;" />
    </linearGradient>
  </defs>
  <sodipodi:namedview
     id="base"
     pagecolor="#ffffff"
     bordercolor="#666666"
     borderopacity="1.0"
     inkscape:pageopacity="0.0"
     inkscape:pageshadow="2"
     inkscape:zoom="1.979899"
     inkscape:cx="86.368075"
     inkscape:cy="-77.586474"
     inkscape:document-units="px"
     inkscape:current-layer="layer1"
     showgrid="false"
     fit-margin-left="5"
     fit-margin-top="5"
     fit-margin-right="5"
     fit-margin-bottom="5"
     inkscape:snap-global="false"
     inkscape:window-width="1920"
     inkscape:window-height="1177"
     inkscape:window-x="-8"
     inkscape:window-y="-8"
     inkscape:window-maximized="1"
     showguides="true"
     inkscape:guide-bbox="true"
     units="mm" />
  <metadata
     id="metadata5557">
    <rdf:RDF>
      <cc:Work
         rdf:about="">
        <dc:format>image/svg+xml</dc:format>
        <dc:type
           rdf:resource="http://purl.org/dc/dcmitype/StillImage" />
        <dc:title></dc:title>
      </cc:Work>
    </rdf:RDF>
  </metadata>
  <g
     inkscape:label="Layer 1"
     inkscape:groupmode="layer"
     id="layer1"
     transform="translate(-155.51141,-98.542382)">
    <g
       transform="matrix(0.4,0,0,0.4,127.6911,47.272158)"
       style="font-size:70px;font-style:normal;font-variant:normal;font-weight:normal;font-stretch:normal;text-align:start;line-height:125%;letter-spacing:0px;word-spacing:0px;writing-mode:lr-tb;text-anchor:start;fill:#236aaa;fill-opacity:0.80441643;stroke:none;font-family:Browallia New;-inkscape-font-specification:'Browallia New, Normal'"
       id="flowRoot4136-1-0-7-3-0-8-0-1-7-7-7">
      <path
         d="m 82.050781,186.97699 4.101563,-0.37597 c 0.319004,2.62045 1.36718,4.53451 3.144531,5.74218 1.777333,1.20769 3.942044,1.81153 6.494141,1.81153 2.71157,0 4.745264,-0.54118 6.101074,-1.62354 1.35577,-1.08235 2.03367,-2.39827 2.03369,-3.94775 -2e-5,-1.07096 -0.33612,-1.9995 -1.0083,-2.78565 -0.67222,-0.78612 -1.58938,-1.38996 -2.75146,-1.81152 -1.162133,-0.42154 -3.235698,-0.97411 -6.220708,-1.65772 -2.210298,-0.50128 -4.067392,-1.08234 -5.571289,-1.74316 -1.503913,-0.66079 -2.722987,-1.61782 -3.657226,-2.87109 -0.934249,-1.25324 -1.401371,-2.75714 -1.401367,-4.51172 -4e-6,-1.86847 0.450028,-3.45212 1.350097,-4.75098 0.90006,-1.2988 2.250156,-2.32988 4.050293,-3.09326 1.80012,-0.76331 3.828113,-1.14499 6.083985,-1.14502 3.942038,3e-5 6.944155,0.9001 9.006345,2.7002 2.06215,1.80015 3.1616,4.15855 3.29834,7.07519 l -4.13574,0.30762 c -0.45575,-4.19268 -3.110371,-6.28904 -7.963867,-6.28906 -5.013031,2e-5 -7.519539,1.64065 -7.519531,4.92187 -8e-6,0.95705 0.307609,1.78306 0.922851,2.47803 0.615225,0.69501 1.407054,1.2134 2.375488,1.55517 0.968413,0.34182 2.466621,0.74058 4.494629,1.19629 3.600242,0.82033 6.03839,1.52671 7.31445,2.11914 1.27602,0.59247 2.3128,1.28176 3.11036,2.06787 0.79749,0.78615 1.39564,1.66913 1.79443,2.64893 0.39873,0.97983 0.59812,2.06218 0.59814,3.24707 -2e-5,3.05339 -1.17353,5.44597 -3.5205,7.17773 -2.34703,1.73178 -5.20673,2.59766 -8.579106,2.59766 -4.51173,0 -7.929696,-1.014 -10.253907,-3.04199 -2.324222,-2.02799 -3.554689,-4.694 -3.691406,-7.99805 z"
         style="line-height:125%;fill:#236aaa;font-family:Browallia New;-inkscape-font-specification:Browallia New"
         id="path3024"
         inkscape:connector-curvature="0" />
      <path
         d="m 113.49609,197.47016 0,-23.68653 3.58887,0 0,3.31543 c 1.6634,-2.57484 4.05598,-3.86228 7.17774,-3.8623 3.48631,2e-5 5.71938,1.3786 6.69921,4.13574 1.89126,-2.75714 4.32941,-4.13572 7.31446,-4.13574 4.89905,2e-5 7.34859,2.65464 7.34863,7.96386 l 0,16.26954 -3.99902,0 0,-14.93653 c -3e-5,-3.87368 -1.41279,-5.81052 -4.23828,-5.81054 -3.85094,2e-5 -5.77639,2.32423 -5.77637,6.97265 l 0,13.77442 -4.0332,0 0,-15.38086 c -2e-5,-3.57746 -1.40139,-5.36619 -4.20411,-5.36621 -1.29884,2e-5 -2.38119,0.29054 -3.24707,0.87158 -0.86589,0.58107 -1.5153,1.45265 -1.94824,2.61474 -0.43295,1.16213 -0.64942,2.81415 -0.64941,4.95606 l 0,12.30469 z"
         style="line-height:125%;fill:#236aaa;font-family:Browallia New;-inkscape-font-specification:Browallia New"
         id="path3026"
         inkscape:connector-curvature="0" />
      <path
         d="m 167.12402,194.5307 c -2.73439,2.32422 -5.65105,3.48633 -8.75,3.48633 -2.46094,0 -4.42627,-0.60954 -5.89599,-1.82861 -1.46973,-1.21908 -2.20459,-2.87679 -2.20459,-4.97315 0,-1.20767 0.26204,-2.29003 0.78613,-3.24707 0.52409,-0.95702 1.38997,-1.80581 2.59766,-2.54638 1.20767,-0.74055 3.19009,-1.28173 5.94726,-1.62354 3.30402,-0.41014 5.6966,-0.86587 7.17774,-1.36719 l 0,-1.05957 c -2e-5,-3.21287 -1.90269,-4.81931 -5.70801,-4.81933 -2.07358,2e-5 -3.52621,0.38739 -4.35791,1.16211 -0.83171,0.77475 -1.44125,1.89129 -1.82861,3.34961 l -3.89649,-0.5127 c 1.02539,-4.87628 4.58007,-7.31443 10.66406,-7.31445 1.70897,2e-5 3.173,0.18231 4.39209,0.54687 1.21906,0.36461 2.21027,0.91148 2.97364,1.64063 0.76332,0.72919 1.25893,1.5495 1.48681,2.46093 0.22784,0.91148 0.34178,2.34703 0.3418,4.30665 l 0,10.4248 c -2e-5,0.50131 0.0968,1.23047 0.29053,2.1875 0.19366,0.95703 0.51837,1.8457 0.97412,2.66602 l -4.2041,0 c -0.41018,-0.8431 -0.67222,-1.82292 -0.78614,-2.93946 z m -0.34179,-8.95508 c -1.41278,0.56968 -3.60028,1.07098 -6.5625,1.50391 -2.39259,0.34181 -3.93068,0.8545 -4.61426,1.53809 -0.6836,0.6836 -1.0254,1.5153 -1.02539,2.49511 -1e-5,2.50652 1.58365,3.75977 4.75097,3.75977 1.11653,0 2.11913,-0.14241 3.00782,-0.42725 0.88865,-0.28482 1.6577,-0.72346 2.30713,-1.31591 0.64939,-0.59245 1.16778,-1.32731 1.55517,-2.20459 0.38735,-0.87728 0.58104,-2.17041 0.58106,-3.8794 z"
         style="line-height:125%;fill:#236aaa;font-family:Browallia New;-inkscape-font-specification:Browallia New"
         id="path3028"
         inkscape:connector-curvature="0" />
      <path
         d="m 177.03613,197.47016 0,-23.68653 3.62305,0 0,3.58887 c 1.5039,-2.75714 3.21288,-4.13572 5.12695,-4.13574 1.34439,2e-5 2.71158,0.43296 4.10157,1.29883 l -1.36719,3.72558 c -0.97983,-0.59243 -1.95965,-0.88865 -2.93946,-0.88867 -1.0254,2e-5 -1.87419,0.28485 -2.54638,0.85449 -0.67221,0.56968 -1.17351,1.50393 -1.50391,2.80274 -0.33041,1.29884 -0.49561,2.64324 -0.4956,4.0332 l 0,12.40723 z"
         style="line-height:125%;fill:#236aaa;font-family:Browallia New;-inkscape-font-specification:Browallia New"
         id="path3030"
         inkscape:connector-curvature="0" />
      <path
         d="m 201.03027,193.88129 0.58106,3.55469 c -1.13934,0.22786 -2.15333,0.34179 -3.04199,0.34179 -1.25327,0 -2.29575,-0.18799 -3.12745,-0.56396 -0.83171,-0.37598 -1.44694,-0.93994 -1.8457,-1.6919 -0.39877,-0.75195 -0.59815,-2.41536 -0.59814,-4.99023 l 0,-13.6377 -2.93946,0 0,-3.11035 2.93946,0 0,-5.8789 3.99902,-2.39258 0,8.27148 4.0332,0 0,3.11035 -4.0332,0 0,13.87696 c -1e-5,1.07097 0.0683,1.79444 0.20508,2.17041 0.13671,0.37598 0.37597,0.64942 0.71777,0.82031 0.34179,0.1709 0.78613,0.25635 1.33301,0.25635 0.45572,0 1.04817,-0.0456 1.77734,-0.13672 z"
         style="line-height:125%;fill:#236aaa;font-family:Browallia New;-inkscape-font-specification:Browallia New"
         id="path3032"
         inkscape:connector-curvature="0" />
      <path
         d="m 205.61035,197.47016 0,-32.70997 4.34082,0 0,13.43262 16.98731,0 0,-13.43262 4.34082,0 0,32.70997 -4.34082,0 0,-15.41504 -16.98731,0 0,15.41504 z"
         style="line-height:125%;fill:#236aaa;font-family:Browallia New;-inkscape-font-specification:Browallia New"
         id="path3034"
         inkscape:connector-curvature="0" />
      <path
         d="m 236.40625,185.6098 c 0,-4.10154 1.04817,-7.1891 3.14453,-9.26269 2.09635,-2.07355 4.75097,-3.11033 7.96387,-3.11035 2.02798,2e-5 3.85089,0.41587 5.46875,1.24756 1.61782,0.83172 2.96222,2.15903 4.0332,3.98193 1.07094,1.82293 1.60642,4.10158 1.60645,6.83594 -3e-5,4.35222 -1.07669,7.55941 -3.22998,9.62158 -2.15334,2.06217 -4.77948,3.09326 -7.87842,3.09326 -2.32423,0 -4.30665,-0.4956 -5.94727,-1.48682 -1.64063,-0.9912 -2.91097,-2.40966 -3.81103,-4.25537 -0.90007,-1.84569 -1.3501,-4.06737 -1.3501,-6.66504 z m 4.13574,0 c 0,1.93686 0.29052,3.58888 0.87158,4.95606 0.58105,1.36719 1.37858,2.39828 2.39258,3.09326 1.01399,0.69499 2.25015,1.04248 3.7085,1.04248 2.25584,0 3.98192,-0.8317 5.17822,-2.49512 1.19627,-1.6634 1.79442,-3.90786 1.79443,-6.73339 -1e-5,-2.71158 -0.61525,-4.87629 -1.8457,-6.49415 -1.23048,-1.61781 -2.93947,-2.42673 -5.12695,-2.42675 -2.34702,2e-5 -4.09588,0.86021 -5.24658,2.58056 -1.15073,1.7204 -1.72608,3.87941 -1.72608,6.47705 z"
         style="line-height:125%;fill:#236aaa;font-family:Browallia New;-inkscape-font-specification:Browallia New"
         id="path3036"
         inkscape:connector-curvature="0" />
      <path
         d="m 263.33984,197.47016 0,-23.68653 3.58887,0 0,3.31543 c 1.6634,-2.57484 4.05598,-3.86228 7.17774,-3.8623 3.48631,2e-5 5.71938,1.3786 6.69921,4.13574 1.89126,-2.75714 4.32941,-4.13572 7.31446,-4.13574 4.89905,2e-5 7.34859,2.65464 7.34863,7.96386 l 0,16.26954 -3.99902,0 0,-14.93653 c -3e-5,-3.87368 -1.41279,-5.81052 -4.23828,-5.81054 -3.85094,2e-5 -5.77639,2.32423 -5.77637,6.97265 l 0,13.77442 -4.03321,0 0,-15.38086 c -1e-5,-3.57746 -1.40138,-5.36619 -4.2041,-5.36621 -1.29884,2e-5 -2.38119,0.29054 -3.24707,0.87158 -0.86589,0.58107 -1.5153,1.45265 -1.94824,2.61474 -0.43295,1.16213 -0.64942,2.81415 -0.64941,4.95606 l 0,12.30469 z"
         style="line-height:125%;fill:#236aaa;font-family:Browallia New;-inkscape-font-specification:Browallia New"
         id="path3038"
         inkscape:connector-curvature="0" />
      <path
         d="m 317.71973,189.84809 4.13574,0.51269 c -1.36721,5.10417 -4.84214,7.65625 -10.42481,7.65625 -2.3698,0 -4.39209,-0.48421 -6.06689,-1.45264 -1.67481,-0.96842 -2.96224,-2.35839 -3.86231,-4.16992 -0.90006,-1.81151 -1.35009,-4.00471 -1.35009,-6.57959 0,-3.85089 0.99121,-6.90997 2.97363,-9.17724 1.98242,-2.26723 4.68261,-3.40086 8.10059,-3.40088 0.75194,2e-5 1.46971,0.057 2.15332,0.1709 0.66079,0.11395 1.29881,0.28485 1.91406,0.51269 0.61522,0.22789 1.18488,0.51272 1.70898,0.85449 0.54686,0.34182 1.04816,0.72919 1.50391,1.16211 0.47849,0.47854 0.91144,1.00263 1.29883,1.57227 0.41013,0.59247 0.76332,1.21909 1.05957,1.87988 0.27341,0.66083 0.50128,1.3786 0.68359,2.15332 0.18227,0.75197 0.3076,1.54949 0.37598,2.39258 0.0228,0.25066 0.0342,1.15073 0.0342,2.70019 l -17.6709,0 c 0.13671,2.48374 0.84309,4.44907 2.11914,5.896 1.27603,1.44694 2.96223,2.17041 5.05859,2.17041 3.0078,0 5.09276,-1.61783 6.25489,-4.85351 z m -13.19336,-6.49415 13.22754,0 c -0.18231,-2.27862 -0.8773,-3.98191 -2.08496,-5.10986 -1.2077,-1.12791 -2.67743,-1.69187 -4.40918,-1.69189 -1.27606,2e-5 -2.39259,0.27915 -3.34961,0.8374 -0.95704,0.55829 -1.73748,1.33872 -2.34131,2.34131 -0.60385,1.00262 -0.95134,2.2103 -1.04248,3.62304 z"
         style="line-height:125%;fill:#236aaa;font-family:Browallia New;-inkscape-font-specification:Browallia New"
         id="path3040"
         inkscape:connector-curvature="0" />
    </g>
    <rect
       style="opacity:0.46499999;fill:#236aaa;fill-opacity:0.80441643;stroke:#000000;stroke-width:0.16534549;stroke-linecap:butt;stroke-linejoin:round;stroke-miterlimit:4;stroke-opacity:0.30447759;stroke-dasharray:none;stroke-dashoffset:0"
       id="rect5004-8-1-2-3-78-9"
       width="122.13261"
       height="2.8230817"
       x="160.6485"
       y="129.67607"
       inkscape:export-xdpi="90"
       inkscape:export-ydpi="90" />
    <g
       transform="matrix(0.4,0,0,0.4,193.71606,-14.9168)"
       style="font-size:70px;font-style:normal;font-variant:normal;font-weight:bold;font-stretch:normal;text-align:start;line-height:125%;letter-spacing:0px;word-spacing:0px;writing-mode:lr-tb;text-anchor:start;opacity:0.46499999;fill:#236aaa;fill-opacity:0.75078861;stroke:url(#linearGradient11357-0-1-4);stroke-width:0.40000001;stroke-linecap:butt;stroke-linejoin:miter;stroke-miterlimit:4;stroke-opacity:1;stroke-dasharray:none;font-family:Browallia New;-inkscape-font-specification:'Browallia New, Bold'"
       id="flowRoot4144-2-3-3-6-8-3-6-0-0-9-8-5"
       inkscape:export-xdpi="90"
       inkscape:export-ydpi="90">
      <path
         d="m 160.52637,352.84099 0,-32.70996 6.42578,0 13.39844,21.84082 0,-21.84082 6.11816,0 0,32.70996 -6.59668,0 -13.19336,-21.32812 0,21.32812 -6.15234,0 z"
         style="font-size:70px;font-style:normal;font-variant:normal;font-weight:bold;font-stretch:normal;text-align:start;line-height:125%;writing-mode:lr-tb;text-anchor:start;fill:#236aaa;fill-opacity:0.75078861;stroke:#000000;stroke-width:0.40000001;stroke-linejoin:round;stroke-miterlimit:4;stroke-opacity:0.30447759;stroke-dasharray:none;font-family:Browallia New;-inkscape-font-specification:'Browallia New, Bold'"
         id="path12285-2-5"
         inkscape:connector-curvature="0" />
      <path
         d="m 208.61719,340.80974 0,-5.50293 14.25293,0 -0.0676,7.81281 -0.50598,1.60047 c -1.90906,4.70086 -7.6917,9.01502 -13.34275,8.95189 -5.42283,-0.0606 -9.61065,-1.86777 -12.43617,-5.03509 -2.82552,-3.19011 -4.23828,-7.28028 -4.23828,-12.27051 0,-5.60547 1.57226,-9.79817 4.71679,-12.57812 3.14453,-2.80273 6.98405,-4.2041 11.51856,-4.2041 7.88411,0 12.88969,4.36221 14.30245,10.7652 l -6.74107,0.15909 c -1.00261,-3.46355 -3.64211,-5.28461 -7.56138,-5.28461 -6.28907,0 -9.4336,3.62305 -9.4336,10.86914 0,3.62305 0.7344,6.66076 2.32945,8.73433 1.61784,2.07357 3.94206,3.11035 6.97266,3.11035 2.77995,0 5.31718,-1.62485 6.81905,-4.20796 l 1.19227,-2.91992 z"
         style="font-size:70px;font-style:normal;font-variant:normal;font-weight:bold;font-stretch:normal;text-align:start;line-height:125%;writing-mode:lr-tb;text-anchor:start;fill:#236aaa;fill-opacity:0.75078861;stroke:#000000;stroke-width:0.40000001;stroke-linejoin:round;stroke-miterlimit:4;stroke-opacity:0.30447759;stroke-dasharray:none;font-family:Browallia New;-inkscape-font-specification:'Browallia New, Bold'"
         id="path12287-7-0"
         inkscape:connector-curvature="0"
         sodipodi:nodetypes="cccccscscsccsscsccc" />
    </g>
    <path
       style="opacity:0.46499999;fill:#236aaa;fill-opacity:0.75078861;stroke:#000000;stroke-width:0.06740551;stroke-linecap:butt;stroke-linejoin:round;stroke-miterlimit:4;stroke-opacity:0.30447759;stroke-dasharray:none;stroke-dashoffset:0"
       d="m 270.35835,103.60488 -14.8042,8.54252 0.66188,1.14702 14.1456,-8.16271 14.14596,8.16271 0.66156,-1.14702 -14.8042,-8.54252 -0.004,0.006 -0.004,-0.006 z"
       id="rect4194-0-4-9-7-3-9-5-3-5-0"
       inkscape:connector-curvature="0"
       inkscape:export-xdpi="90"
       inkscape:export-ydpi="90" />
    <path
       style="opacity:0.46499999;fill:#236aaa;fill-opacity:0.75078861;stroke:#000000;stroke-width:0.06227227;stroke-linecap:butt;stroke-linejoin:round;stroke-miterlimit:4;stroke-opacity:0.30447759;stroke-dasharray:none;stroke-dashoffset:0"
       d="m 264.30455,104.32312 -1.26792,0 0,2.85036 1.26792,-0.72733 z"
       id="rect4242-6-6-4-7-4-6-2-2-7-1"
       inkscape:connector-curvature="0"
       sodipodi:nodetypes="ccccc"
       inkscape:export-xdpi="90"
       inkscape:export-ydpi="90" />
  </g>
</svg>
