<?xml version="1.0" encoding="UTF-8" standalone="no"?>
<!-- Created with Inkscape (http://www.inkscape.org/) -->

<svg
   xmlns:dc="http://purl.org/dc/elements/1.1/"
   xmlns:cc="http://creativecommons.org/ns#"
   xmlns:rdf="http://www.w3.org/1999/02/22-rdf-syntax-ns#"
   xmlns:svg="http://www.w3.org/2000/svg"
   xmlns="http://www.w3.org/2000/svg"
   xmlns:sodipodi="http://sodipodi.sourceforge.net/DTD/sodipodi-0.dtd"
   xmlns:inkscape="http://www.inkscape.org/namespaces/inkscape"
   id="svg2"
   inkscape:version="0.91 r13725"
   viewBox="0 0 465.21 465.20998"
   version="1.1"
   sodipodi:docname="jigsaw-puzzle-II-remix.svg"
   width="465.20999"
   height="465.20999">
  <title
     id="title4460">jigsaw-puzzle-II</title>
  <defs
     id="defs4">
    <linearGradient
       id="linearGradient4008"
       x1="444.76999"
       gradientUnits="userSpaceOnUse"
       y1="302.12"
       gradientTransform="translate(-585.85283,-197.98214)"
       x2="602.46002"
       y2="451.32001"
       inkscape:collect="always">
      <stop
         id="stop4416"
         style="stop-color:#ff298f"
         offset="0" />
      <stop
         id="stop4418"
         style="stop-color:#d51952"
         offset=".45002" />
      <stop
         id="stop4420"
         style="stop-color:#b5093b"
         offset="1" />
    </linearGradient>
    <linearGradient
       id="linearGradient4013"
       x1="444.76999"
       gradientUnits="userSpaceOnUse"
       y1="302.12"
       gradientTransform="matrix(0.00178143,0.99999841,-0.99999841,0.00178143,657.4474,-216.5239)"
       x2="602.46002"
       y2="451.32001"
       inkscape:collect="always">
      <stop
         id="stop4424"
         style="stop-color:#139bca"
         offset="0" />
      <stop
         id="stop4426"
         style="stop-color:#0e5fb0"
         offset=".45002" />
      <stop
         id="stop4428"
         style="stop-color:#0a57a9"
         offset="1" />
    </linearGradient>
    <linearGradient
       id="linearGradient4027"
       x1="444.76999"
       gradientUnits="userSpaceOnUse"
       y1="302.12"
       gradientTransform="matrix(-1,0,0,-1,505.86251,887.31872)"
       x2="602.46002"
       y2="451.32001"
       inkscape:collect="always">
      <stop
         id="stop4432"
         style="stop-color:#dd8509"
         offset="0" />
      <stop
         id="stop4434"
         style="stop-color:#f1bd0a"
         offset=".45002" />
      <stop
         id="stop4436"
         style="stop-color:#fff44d"
         offset="1" />
    </linearGradient>
    <linearGradient
       id="linearGradient4029"
       x1="444.76999"
       gradientUnits="userSpaceOnUse"
       y1="302.12"
       gradientTransform="matrix(-1,0,0,-1,989,750.14)"
       x2="602.46002"
       y2="451.32001"
       inkscape:collect="always">
      <stop
         id="stop4440"
         style="stop-color:#489f03"
         offset="0" />
      <stop
         id="stop4442"
         style="stop-color:#55b505"
         offset=".45002" />
      <stop
         id="stop4444"
         style="stop-color:#67d308"
         offset="1" />
    </linearGradient>
    <filter
       id="filter4402"
       inkscape:collect="always"
       style="color-interpolation-filters:sRGB">
      <feGaussianBlur
         id="feGaussianBlur4404"
         stdDeviation="1.0360341"
         inkscape:collect="always" />
    </filter>
    <filter
       id="filter4454"
       inkscape:collect="always"
       style="color-interpolation-filters:sRGB">
      <feGaussianBlur
         id="feGaussianBlur4456"
         stdDeviation="0.46367808"
         inkscape:collect="always" />
    </filter>
  </defs>
  <sodipodi:namedview
     id="base"
     inkscape:zoom="0.70710678"
     borderopacity="1.0"
     inkscape:current-layer="layer2"
     inkscape:cx="34.477353"
     inkscape:cy="135.21384"
     inkscape:snap-bbox-midpoints="true"
     inkscape:window-maximized="0"
     inkscape:snap-bbox="true"
     showgrid="false"
     inkscape:snap-global="false"
     showguides="true"
     bordercolor="#666666"
     inkscape:window-x="0"
     inkscape:guide-bbox="true"
     inkscape:snap-bbox-edge-midpoints="true"
     inkscape:window-y="0"
     inkscape:window-width="1280"
     inkscape:pageopacity="0.0"
     inkscape:pageshadow="2"
     pagecolor="#ffffff"
     inkscape:bbox-paths="true"
     inkscape:document-units="px"
     inkscape:bbox-nodes="true"
     inkscape:window-height="684" />
  <g
     id="layer2"
     inkscape:label="Camada"
     inkscape:groupmode="layer"
     transform="translate(-137.29,-3.6800167)">
    <path
       id="path4324"
       style="color:#000000;fill:#007bff"
       inkscape:connector-curvature="0"
       d="m 563.70523,160.51472 c -6.8396,-0.23632 -13.166,3.6103 -19.438,6.0312 -0.92275,0.52784 -1.9427,0.8257 -3,0.90625 1.5456,0.1935 3.1432,-0.13012 4.5,-0.90625 5.8798,-2.2696 11.834,-5.7632 18.188,-6 -0.0834,-0.001 -0.16634,-0.0313 -0.25,-0.0313 z" />
    <path
       id="path4322"
       style="color:#000000;fill:#ffffff;fill-opacity:0.59073002"
       inkscape:connector-curvature="0"
       d="m 375.67579,185.58944 c -1.2471,-0.001 -2.5114,0.27985 -3.5938,0.90625 -1.9902,1.1517 -3.3527,3.6858 -3.5625,6.0312 l -0.0313,0 0,73.75 1.5,0 0,-73.75 0.0313,0 c 0.2098,-2.3454 1.5723,-4.8796 3.5625,-6.0312 0.81173,-0.4698 1.7289,-0.75889 2.6562,-0.875 -0.18669,-0.0142 -0.37529,-0.031 -0.5625,-0.0313 z" />
    <path
       id="path4320"
       style="color:#000000;fill:#007bff"
       inkscape:connector-curvature="0"
       d="m 559.17579,185.58944 c -0.18721,-2e-4 -0.37588,0.0174 -0.5625,0.0313 0.92798,0.11777 1.8109,0.40929 2.625,0.875 6.5272,2.2553 12.475,6.0312 19.438,6.0312 0.34949,0 0.71736,0.0175 1.0625,0 -6.772,-0.15528 -12.612,-3.824 -19,-6.0312 -1.0854,-0.62095 -2.3154,-0.90489 -3.5625,-0.90625 z" />
    <g
       id="g6175"
       transform="matrix(3.3877496e-4,-0.99999994,0.99999994,3.3877496e-4,-42.826929,106.71342)">
      <path
         d="m 62.475656,604.6545 0,-67.719 -0.031,0 c -0.2098,-2.3454 -1.5723,-4.8794 -3.5625,-6.0312 -2.1646,-1.2527 -0.9853,-1.2418 -3.1562,0 -6.2718,2.4209 -12.598,6.2676 -19.438,6.0312 -10.834,0 -19.708,-8.5193 -20.25,-19.219 -0.017,-0.3451 0,-0.68175 0,-1.0312 0,-11.184 9.0663,-20.25 20.25,-20.25 6.9621,0 12.91,3.776 19.438,6.0313 2.1709,1.2419 4.9916,1.2528 7.1562,0 1.9902,-1.1517 3.3527,-3.6859 3.5625,-6.0313 l 0.031,0 0,-73.75 -73.7499995,0 0,-0.0313 c -2.3454,-0.20976 -4.8796005,-1.5723 -6.0313005,-3.5625 -1.2528,-2.1646 -1.2419,-4.9853 0,-7.1562 2.2553,-6.5273 6.0313005,-12.475 6.0313005,-19.438 0,-11.184 -9.0662005,-20.25 -20.2500005,-20.25 -0.3495,0 -0.6862,-0.0175 -1.0313,0 -10.7,0.54236 -19.219,9.4157 -19.219,20.25 -0.2363,6.8396 3.6103,13.166 6.0312,19.438 1.2418,2.1709 1.2527,4.9917 0,7.1562 -1.1518,1.9902 -3.6857,3.3527 -6.0312,3.5625 l 0,0.0313 -67.749996,0 0,73.75 -0.031,0 c -0.2098,2.3454 -1.5723,4.8796 -3.5625,6.0313 -2.1646,1.2528 -4.9853,1.2419 -7.1562,0 -6.5272,-2.2553 -12.475,-6.0313 -19.438,-6.0313 -11.184,0 -20.25,9.0662 -20.25,20.25 0,0.3495 -0.017,0.68615 0,1.0312 0.5424,10.699 9.4158,19.219 20.25,19.219 6.8396,0.23632 13.166,-3.6103 19.438,-6.0312 2.1709,-1.2418 4.9916,-1.2527 7.1562,0 1.9902,1.1518 3.3527,3.6858 3.5625,6.0312 l 0.031,0 0,67.719 67.749996,0 0,-0.0313 c 2.3455,-0.20976 4.8794,-1.5723 6.0312,-3.5625 1.2527,-2.1646 1.2418,-4.9853 0,-7.1562 -2.4209,-6.2718 -6.2675,-12.598 -6.0312,-19.438 0,-10.834 8.5192,-19.708 19.219,-20.25 0.3451,-0.0175 0.6818,0 1.0313,0 11.184,0 20.2500005,9.0662 20.2500005,20.25 0,6.9621 -3.7760005,12.91 -6.0313005,19.438 -1.2419,2.1709 -1.2528,4.9917 0,7.1562 1.1517,1.9902 3.6859005,3.3527 6.0313005,3.5625 l 0,0.0313 z"
         style="color:#000000;fill:#873e00"
         sodipodi:nodetypes="ccccscccsscccccccccccccsscccscccccccccsscccsccccccscccssccccc"
         inkscape:connector-curvature="0"
         id="path4374" />
      <path
         d="m 68.712511,602.16872 0,-67.719 -0.031,0 c -0.2098,-2.3454 -1.5723,-4.8794 -3.5625,-6.0312 -2.1646,-1.2527 -4.9853,-1.2418 -7.1562,0 -6.2718,2.4209 -12.598,6.2676 -19.438,6.0312 -10.834,0 -19.708,-8.5193 -20.25,-19.219 -0.017,-0.3451 0,-0.68175 0,-1.0312 0,-11.184 9.0663,-20.25 20.25,-20.25 6.9621,0 12.91,3.776 19.438,6.0313 2.1709,1.2419 4.9916,1.2528 7.1562,0 1.9902,-1.1517 3.3527,-3.6859 3.5625,-6.0313 l 0.031,0 0,-73.75 -73.7500003,0 0,-0.0313 c -2.3454,-0.20976 -4.8796,-1.5723 -6.0312997,-3.5625 -1.2528,-2.1646 -1.2419,-4.9853 0,-7.1562 2.2552997,-6.5273 6.0312997,-12.475 6.0312997,-19.438 0,-11.184 -9.0661997,-20.25 -20.2499997,-20.25 -0.3495,0 -0.6862,-0.0175 -1.0313,0 -10.7,0.54236 -19.219,9.4157 -19.219,20.25 -0.2363,6.8396 3.6103,13.166 6.0312,19.438 1.2418,2.1709 1.2527,4.9917 0,7.1562 -1.1518,1.9902 -3.6857,3.3527 -6.0312,3.5625 l 0,0.0313 -67.750001,0 0,73.75 -0.031,0 c -0.2098,2.3454 -1.5723,4.8796 -3.5625,6.0313 -2.1646,1.2528 -4.9853,1.2419 -7.1562,0 -6.5272,-2.2553 -12.475,-6.0313 -19.438,-6.0313 -11.184,0 -20.25,9.0662 -20.25,20.25 0,0.3495 -0.017,0.68615 0,1.0312 0.5424,10.699 9.4158,19.219 20.25,19.219 6.8396,0.23632 13.166,-3.6103 19.438,-6.0312 2.1709,-1.2418 4.9916,-1.2527 7.1562,0 1.9902,1.1518 3.3527,3.6858 3.5625,6.0312 l 0.031,0 0,67.719 67.750001,0 0,-0.0313 c 2.3455,-0.20976 4.8794,-1.5723 6.0312,-3.5625 1.2527,-2.1646 1.2418,-4.9853 0,-7.1562 -2.4209,-6.2718 -6.2675,-12.598 -6.0312,-19.438 0,-10.834 8.5192,-19.708 19.219,-20.25 0.3451,-0.0175 0.6818,0 1.0313,0 11.184,0 20.2499997,9.0662 20.2499997,20.25 0,6.9621 -3.776,12.91 -6.0312997,19.438 -1.2419,2.1709 -1.2528,4.9917 0,7.1562 1.1516997,1.9902 3.6858997,3.3527 6.0312997,3.5625 l 0,0.0313 73.7500003,0 z"
         inkscape:connector-curvature="0"
         style="color:#000000;fill:url(#linearGradient4027);stroke:#ff6600;stroke-width:0.40000001"
         id="path4023" />
      <path
         inkscape:connector-curvature="0"
         style="color:#000000;fill:#bb6a00"
         d="m -24.833276,369.77872 c 10.685,0.55791 19.1560003,9.4262 19.1560003,20.25 0,6.9621 -3.776,12.91 -6.0312003,19.438 -1.2419,2.1709 -1.2528,4.9917 0,7.1562 1.1517,1.9902 3.6858003,3.3527 6.0312003,3.5625 l 0,0.0313 2.125,0 0,-0.0313 c -2.3454,-0.20976 -4.8796,-1.5723 -6.0312,-3.5625 -1.2528003,-2.1646 -1.2419003,-4.9853 0,-7.1562 2.2553,-6.5273 6.0312,-12.475 6.0312,-19.438 0,-11.184 -9.0662003,-20.25 -20.2500003,-20.25 -0.3495,0 -0.68615,-0.0175 -1.0312,0 z m 92.906,50.438 0,73.75 -0.0313,0 c -0.2098,2.3454 -1.5723,4.8795 -3.5625,6.0312 -0.77409,0.44802 -1.6178,0.71746 -2.5,0.84375 1.5858,0.22951 3.2345,-0.039 4.625,-0.84375 1.9902,-1.1517 3.3527,-3.6858 3.5625,-6.0312 l 0.0313,0 0,-73.75 -2.125,0 z m -211.090004,73.75 c -0.0736,0.004 -0.1454,0.0267 -0.21875,0.0313 6.5936,0.29282 12.307,3.8387 18.562,6 1.3946,0.79778 3.0716,1.0706 4.6562,0.84375 -0.88282,-0.12777 -1.7549,-0.39963 -2.5312,-0.84375 -6.5272,-2.2553 -12.475,-6.0312 -19.438,-6.0312 -0.34949,0 -0.68611,-0.0175 -1.0312,0 z m 179.880004,0 c -10.699,0.54236 -19.219,9.4157 -19.219,20.25 0,0.3495 -0.017,0.68615 0,1.0312 0.5424,10.699 9.4158,19.219 20.25,19.219 0.55268,0.0191 1.11,7e-5 1.6562,-0.0313 -10.618,-0.24465 -19.247,-8.6448 -19.781,-19.188 -0.017,-0.3451 0,-0.68175 0,-1.0312 0,-10.76 8.4043,-19.567 19,-20.219 -0.28676,-0.0127 -0.58483,-0.0313 -0.875,-0.0313 -0.34949,0 -0.68611,-0.0175 -1.0312,0 z m -157.940004,33.531 c -1.2471,0.001 -2.5083,0.3166 -3.5938,0.9375 -5.765,2.2253 -11.568,5.6438 -17.781,6 0.15788,0.004 0.31,0.0313 0.46875,0.0313 6.8396,0.23632 13.166,-3.6103 19.438,-6.0312 0.79591,-0.45528 1.6875,-0.75224 2.5938,-0.875 -0.37116,-0.0563 -0.74923,-0.0629 -1.125,-0.0625 z m 184.120004,0 c -0.33266,3.6e-4 -0.67033,0.0178 -1,0.0625 0.86066,0.1306 1.6813,0.43737 2.4375,0.875 1.9902,1.1518 3.3527,3.6858 3.5625,6.0312 l 0.0313,0 0,67.719 2.125,0 0,-67.719 -0.0313,0 c -0.2098,-2.3454 -1.5723,-4.8794 -3.5625,-6.0312 -1.0823,-0.62636 -2.3154,-0.93887 -3.5625,-0.9375 z m -90,24.25 c -10.7,0.54236 -19.219,9.4157 -19.219,20.25 -0.2363,6.8396 3.6104,13.166 6.0312,19.438 1.2418,2.1709 1.2527,4.9917 0,7.1562 -1.1518,1.9902 -3.6858,3.3527 -6.0312,3.5625 l 0,0.0313 2.125,0 0,-0.0313 c 2.3455,-0.20976 4.8794,-1.5723 6.0312,-3.5625 1.2527,-2.1646 1.2418,-4.9853 0,-7.1562 -2.4209,-6.2718 -6.2676,-12.598 -6.0312,-19.438 0,-10.824 8.5028,-19.692 19.188,-20.25 -0.34515,-0.0175 -0.71301,0 -1.0625,0 -0.3495,0 -0.68615,-0.0175 -1.0312,0 z"
         id="path4301" />
    </g>
    <g
       id="g6169"
       transform="matrix(-0.99999326,-0.00367156,0.00367156,-0.99999326,410.94876,493.41677)">
      <path
         inkscape:connector-curvature="0"
         style="color:#000000;fill:#800000;fill-opacity:0.82239003;filter:url(#filter4402)"
         d="m -137.38912,94.952078 0,67.719002 0.0313,0 c 0.2098,2.3454 1.5723,4.8794 3.5625,6.0312 2.1646,1.2527 4.9854,1.2418 7.1562,0 6.2718,-2.4209 12.598,-6.2676 19.438,-6.0312 10.834,0 19.708,8.5193 20.25,19.219 0.017,0.3451 0,0.68175 0,1.0312 0,11.184 -9.0663,20.25 -20.25,20.25 -6.9621,0 -12.91,-3.776 -19.438,-6.0312 -2.1709,-1.2419 -4.9916,-1.2528 -7.1562,0 -1.9902,1.1517 -3.3527,3.6858 -3.5625,6.0312 l -0.03,0 0,73.75 67.75,0 0,-0.0313 c 2.3454,-0.2098 4.8794,-1.5723 6.0312,-3.5625 1.2527,-2.1646 1.2418,-4.9854 0,-7.1562 -2.4209,-6.2718 -6.2676,-12.598 -6.0312,-19.438 0,-10.834 8.5192,-19.708 19.219,-20.25 0.3451,-0.017 0.6818,0 1.0313,0 11.184,0 20.25,9.0663 20.25,20.25 0,6.9621 -3.776,12.91 -6.0313,19.438 -1.2419,2.1709 -1.2528,4.9916 0,7.1562 1.1517,1.9902 3.6859,3.3527 6.0313,3.5625 l 0,0.0313 73.75,0 0,-73.75 0.031,0 c 0.2098,-2.3454 1.5723,-4.8796 3.5625,-6.0312 2.1646,-1.2528 4.9854,-1.2419 7.1563,0 6.5272,2.2553 12.475,6.0312 19.438,6.0312 11.184,0 20.25,-9.0662 20.25,-20.25 0,-0.3495 0.017,-0.68615 0,-1.0312 -0.5424,-10.699 -9.4158,-19.219 -20.25,-19.219 -6.8396,-0.23632 -13.166,3.6103 -19.438,6.0312 -2.1709,1.2418 -4.9917,1.2527 -7.1563,0 -1.9902,-1.1518 -3.3527,-3.6858 -3.5625,-6.0312 l -0.031,0 0,-67.719002 -67.75,0 0,0.0313 c -2.3455,0.20976 -4.8795,1.5723 -6.0313,3.5625 -1.2527,2.164602 -1.2418,4.985302 0,7.156202 2.4209,6.2718 6.2676,12.598 6.0313,19.438 0,10.834 -8.5193,19.708 -19.219,20.25 -0.3451,0.0175 -0.6817,0 -1.0312,0 -11.184,0 -20.25,-9.0662 -20.25,-20.25 0,-6.9621 3.7759,-12.91 6.0312,-19.438 1.2419,-2.1709 1.2528,-4.9917 0,-7.156202 -1.1517,-1.9902 -3.6858,-3.3527 -6.0312,-3.5625 l 0,-0.03 -73.75,0 z"
         id="path4355" />
      <path
         inkscape:connector-curvature="0"
         style="color:#000000;fill:url(#linearGradient4008);stroke:#000000;stroke-width:0.40000001"
         d="m -148.70283,87.167864 0,67.718996 0.0313,0 c 0.2098,2.3454 1.5723,4.8794 3.5625,6.0312 2.1646,1.2527 4.9854,1.2418 7.1562,0 6.2718,-2.4209 12.598,-6.2676 19.438,-6.0312 10.834,0 19.708002,8.5193 20.250002,19.219 0.017,0.3451 0,0.68175 0,1.0312 0,11.184 -9.066302,20.25 -20.250002,20.25 -6.9621,0 -12.91,-3.776 -19.438,-6.0312 -2.1709,-1.2419 -4.9916,-1.2528 -7.1562,0 -1.9902,1.1517 -3.3527,3.6858 -3.5625,6.0312 l -0.03,0 0,73.75 67.750002,0 0,-0.0313 c 2.3454,-0.2098 4.8794,-1.5723 6.0312,-3.5625 1.2527,-2.1646 1.2418,-4.9854 0,-7.1562 -2.4209,-6.2718 -6.2676,-12.598 -6.0312,-19.438 0,-10.834 8.5192,-19.708 19.219,-20.25 0.3451,-0.017 0.6818,0 1.0313,0 11.184,0 20.25,9.0663 20.25,20.25 0,6.9621 -3.776,12.91 -6.0313,19.438 -1.2419,2.1709 -1.2528,4.9916 0,7.1562 1.1517,1.9902 3.6859,3.3527 6.0313,3.5625 l 0,0.0313 73.75,0 0,-73.75 0.031,0 c 0.2098,-2.3454 1.5723,-4.8796 3.5625,-6.0312 2.1646,-1.2528 4.9854,-1.2419 7.1563,0 6.5272,2.2553 12.475,6.0312 19.438,6.0312 11.184,0 20.25,-9.0662 20.25,-20.25 0,-0.3495 0.017,-0.68615 0,-1.0312 -0.5424,-10.699 -9.4158,-19.219 -20.25,-19.219 -6.8396,-0.23632 -13.166,3.6103 -19.438,6.0312 -2.1709,1.2418 -4.9917,1.2527 -7.1563,0 -1.9902,-1.1518 -3.3527,-3.6858 -3.5625,-6.0312 l -0.031,0 0,-67.718996 -67.75,0 0,0.0313 c -2.3455,0.20976 -4.8795,1.5723 -6.0313,3.5625 -1.2527,2.1646 -1.2418,4.9853 0,7.1562 2.4209,6.271796 6.2676,12.597996 6.0313,19.437996 0,10.834 -8.5193,19.708 -19.219,20.25 -0.3451,0.0175 -0.6817,0 -1.0312,0 -11.184,0 -20.25,-9.0662 -20.25,-20.25 0,-6.9621 3.7759,-12.91 6.0312,-19.437996 1.2419,-2.1709 1.2528,-4.9917 0,-7.1562 -1.1517,-1.9902 -3.6858,-3.3527 -6.0312,-3.5625 l 0,-0.03 -73.750002,0 z"
         id="path4006" />
      <path
         inkscape:connector-curvature="0"
         style="color:#000000;fill:#800000"
         d="m -74.234401,88.692078 0,0.0313 c 2.3454,0.20976 4.8796,1.5723 6.0312,3.5625 1.2528,2.1646 1.2419,4.9853 0,7.1562 -2.2553,6.527302 -6.0312,12.475002 -6.0312,19.438002 0,11.184 9.0662,20.25 20.25,20.25 0.3495,0 0.68615,0.0175 1.0312,0 -10.964,-0.2523 -19.781,-9.2249 -19.781,-20.25 0,-6.9621 3.776,-12.91 6.0312,-19.438002 1.2419,-2.1709 1.2528,-4.9917 0,-7.1562 -1.1517,-1.9902 -3.6858,-3.3527 -6.0312,-3.5625 l 0,-0.03 -1.5,0 z m 108.25,0 0,67.719002 0.0313,0 c 0.2098,2.3454 1.5723,4.8794 3.5625,6.0312 1.3064,0.75609 2.8464,1.0323 4.3438,0.875 -0.99195,-0.0989 -1.9782,-0.37405 -2.8438,-0.875 -1.9902,-1.1518 -3.3527,-3.6858 -3.5625,-6.0312 l -0.03,0 0,-67.719002 -1.5,0 z M -119.0744,156.41108 c -6.3536,0.23675 -12.276,3.7616 -18.156,6.0312 -0.86065,0.49232 -1.829,0.77165 -2.8125,0.875 1.4886,0.14842 3.0097,-0.12978 4.3125,-0.875 5.8116,-2.2433 11.667,-5.7225 17.938,-6.0312 -0.42747,-0.0148 -0.85767,-0.0158 -1.2812,0 z m 183.499999,0 c 10.733,0.11513 19.493,8.5922 20.031,19.219 0.017,0.3451 0,0.68175 0,1.0312 0,10.961 -8.7178,19.868 -19.594,20.219 0.28331,0.0124 0.55711,0.0313 0.84375,0.0313 11.184,0 20.25,-9.0662 20.25,-20.25 0,-0.3495 0.017,-0.68615 0,-1.0312 -0.5424,-10.699 -9.4158,-19.219 -20.25,-19.219 -0.42747,-0.0148 -0.85767,-0.0158 -1.2812,0 z m -203.719999,33.53 c -0.2497,-2.7e-4 -0.50167,0.0377 -0.75,0.0625 0.98355,0.10335 1.9518,0.38265 2.8125,0.875 6.5272,2.2553 12.475,6.0312 19.438,6.0312 0.22252,0 0.43546,-0.0241 0.65625,-0.0313 -6.598,-0.28951 -12.335,-3.8376 -18.594,-6 -1.0854,-0.62095 -2.3154,-0.93614 -3.5625,-0.9375 z m 180.499999,0 c -1.2471,-0.001 -2.5114,0.3111 -3.5938,0.9375 -1.9902,1.1517 -3.3527,3.6858 -3.5625,6.0312 l -0.0313,0 0,73.75 1.5,0 0,-73.75 0.0313,0 c 0.2098,-2.3454 1.5723,-4.8796 3.5625,-6.0312 0.8656,-0.50098 1.8518,-0.77609 2.8438,-0.875 -0.2569,-0.027 -0.49172,-0.0622 -0.75,-0.0625 z m -102.22,30.281 c -10.7,0.5424 -19.219,9.4158 -19.219,20.25 -0.2364,6.8396 3.6104,13.166 6.0312,19.438 1.2418,2.1709 1.2527,4.9916 0,7.1562 -1.1518,1.9902 -3.6858,3.3527 -6.0312,3.5625 l 0,0.0313 1.5,0 0,-0.0313 c 2.3454,-0.2098 4.8794,-1.5723 6.0312,-3.5625 1.2527,-2.1646 1.2418,-4.9854 0,-7.1562 -2.4209,-6.2718 -6.2676,-12.598 -6.0312,-19.438 0,-10.792 8.4535,-19.645 19.094,-20.25 -0.11592,-0.002 -0.22736,0 -0.34375,0 -0.3495,0 -0.68615,-0.017 -1.0312,0 z"
         id="path4206" />
      <path
         inkscape:connector-curvature="0"
         style="color:#000000;fill:none;stroke:#800000;stroke-width:0.40000001"
         d="m -147.28862,88.582079 0,67.718991 0.0313,0 c 0.2098,2.3454 1.5723,4.8794 3.5625,6.0312 2.1646,1.2527 4.9854,1.2418 7.1562,0 6.2718,-2.4209 12.598,-6.2676 19.438,-6.0312 10.834,0 19.708005,8.5193 20.250005,19.219 0.017,0.3451 0,0.68175 0,1.0312 0,11.184 -9.066305,20.25 -20.250005,20.25 -6.9621,0 -12.91,-3.776 -19.438,-6.0312 -2.1709,-1.2419 -4.9916,-1.2528 -7.1562,0 -1.9902,1.1517 -3.3527,3.6858 -3.5625,6.0312 l -0.03,0 0,73.75 67.750007,0 0,-0.0313 c 2.345398,-0.2098 4.879398,-1.5723 6.031198,-3.5625 1.2527,-2.1646 1.2418,-4.9854 0,-7.1562 -2.4209,-6.2718 -6.267598,-12.598 -6.031198,-19.438 0,-10.834 8.519198,-19.708 19.218998,-20.25 0.3451,-0.017 0.6818,0 1.0313,0 11.184,0 20.25,9.0663 20.25,20.25 0,6.9621 -3.776,12.91 -6.0313,19.438 -1.2419,2.1709 -1.2528,4.9916 0,7.1562 1.1517,1.9902 3.6859,3.3527 6.0313,3.5625 l 0,0.0313 73.75,0 0,-73.75 0.031,0 c 0.2098,-2.3454 1.5723,-4.8796 3.5625,-6.0312 2.1646,-1.2528 4.9854,-1.2419 7.1563,0 6.5272,2.2553 12.475,6.0312 19.438,6.0312 11.184003,0 20.250003,-9.0662 20.250003,-20.25 0,-0.3495 0.017,-0.68615 0,-1.0312 -0.5424,-10.699 -9.4158,-19.219 -20.250003,-19.219 -6.8396,-0.23632 -13.166,3.6103 -19.438,6.0312 -2.1709,1.2418 -4.9917,1.2527 -7.1563,0 -1.9902,-1.1518 -3.3527,-3.6858 -3.5625,-6.0312 l -0.031,0 0,-67.718991 -67.75,0 0,0.0313 c -2.3455,0.20976 -4.8795,1.5723 -6.0313,3.5625 -1.2527,2.1646 -1.2418,4.9853 0,7.1562 2.4209,6.271801 6.2676,12.597991 6.0313,19.437991 0,10.834 -8.5193,19.708 -19.219,20.25 -0.3451,0.0175 -0.6817,0 -1.0312,0 -11.184,0 -20.25,-9.0662 -20.25,-20.25 0,-6.9621 3.7759,-12.91 6.0312,-19.437991 1.2419,-2.1709 1.2528,-4.9917 0,-7.1562 -1.1517,-1.9902 -3.6858,-3.3527 -6.0312,-3.5625 l 0,-0.03 -73.750005,0 z"
         id="path4310" />
    </g>
    <path
       id="path4314"
       d="m 368.52579,448.01944 0,-67.719 -0.031,0 c -0.2098,-2.3454 -1.5723,-4.8794 -3.5625,-6.0312 -2.1646,-1.2527 -4.9853,-1.2418 -7.1562,0 -6.2718,2.4209 -12.598,6.2676 -19.438,6.0312 -10.834,0 -19.708,-8.5193 -20.25,-19.219 -0.017,-0.3451 0,-0.68175 0,-1.0312 0,-11.184 9.0663,-20.25 20.25,-20.25 6.9621,0 12.91,3.776 19.438,6.0313 2.1709,1.2419 4.9916,1.2528 7.1562,0 1.9902,-1.1517 3.3527,-3.6859 3.5625,-6.0313 l 0.031,0 0,-73.75 -73.75,0 0,-0.0313 c -2.3454,-0.20976 -4.8796,-1.5723 -6.0313,-3.5625 -1.2528,-2.1646 -1.2419,-4.9853 0,-7.1562 2.2553,-6.5273 6.0313,-12.475 6.0313,-19.438 0,-11.184 -9.0662,-20.25 -20.25,-20.25 -0.3495,0 -0.6862,-0.0175 -1.0313,0 -10.7,0.54236 -19.219,9.4157 -19.219,20.25 -0.2363,6.8396 3.6103,13.166 6.0312,19.438 1.2418,2.1709 1.2527,4.9917 0,7.1562 -1.1518,1.9902 -3.6857,3.3527 -6.0312,3.5625 l 0,0.0313 -67.75,0 0,73.75 -0.031,0 c -0.2098,2.3454 -1.5723,4.8796 -3.5625,6.0313 -2.1646,1.2528 -4.9853,1.2419 -7.1562,0 -6.5272,-2.2553 -12.475,-6.0313 -19.438,-6.0313 -11.184,0 -20.25,9.0662 -20.25,20.25 0,0.3495 -0.017,0.68615 0,1.0312 0.5424,10.699 9.4158,19.219 20.25,19.219 6.8396,0.23632 13.166,-3.6103 19.438,-6.0312 2.1709,-1.2418 4.9916,-1.2527 7.1562,0 1.9902,1.1518 3.3527,3.6858 3.5625,6.0312 l 0.031,0 0,67.719 67.75,0 0,-0.0313 c 2.3455,-0.20976 4.8794,-1.5723 6.0312,-3.5625 1.2527,-2.1646 1.2418,-4.9853 0,-7.1562 -2.4209,-6.2718 -6.2675,-12.598 -6.0312,-19.438 0,-10.834 8.5192,-19.708 19.219,-20.25 0.3451,-0.0175 0.6818,0 1.0313,0 11.184,0 20.25,9.0662 20.25,20.25 0,6.9621 -3.776,12.91 -6.0313,19.438 -1.2419,2.1709 -1.2528,4.9917 0,7.1562 1.1517,1.9902 3.6859,3.3527 6.0313,3.5625 l 0,0.0313 73.75,0 z"
       style="color:#000000;fill:none"
       inkscape:connector-curvature="0" />
    <g
       id="g6180"
       transform="matrix(-0.01197566,-0.99992829,0.99992829,-0.01197566,-88.677801,595.71562)">
      <path
         inkscape:connector-curvature="0"
         style="color:#000000;fill:#008000"
         sodipodi:nodetypes="ccccscccsscccccccccscccssccccccccccsscccsccccccscccssccccc"
         d="m 552.91,468.87 0,-67.719 -0.0313,0 c -0.2098,-2.3454 -1.5723,-4.8794 -3.5625,-6.0312 -2.1646,-1.2527 -4.9854,-1.2418 -7.1562,0 -6.2718,2.4209 -12.598,6.2676 -19.438,6.0312 -10.834,0 -19.708,-8.5193 -20.25,-19.219 -0.017,-0.3451 0,-0.68175 0,-1.0312 0,-11.184 9.0663,-20.25 20.25,-20.25 6.9621,0 12.91,3.776 19.438,6.0313 2.1709,1.2419 4.9916,1.2528 7.1562,0 1.9902,-1.1517 3.3527,-3.6859 3.5625,-6.0313 l 0.0313,0 0,-77.816 -67.75,0 0,0.0313 c -2.3454,0.2098 -4.8794,5.6382 -6.0312,7.6284 -1.2527,2.1646 -1.2418,4.9854 0,7.1562 2.4209,6.2718 6.2676,12.598 6.0312,19.438 0,10.834 -8.5192,19.708 -19.219,20.25 -0.3451,0.017 -0.6818,0 -1.0313,0 -11.184,0 -20.25,-9.0663 -20.25,-20.25 0,-6.9621 3.776,-12.91 6.0313,-19.438 1.2419,-2.1709 1.2528,-4.9916 0,-7.1562 -1.1517,-1.9902 -3.6859,-3.3527 -6.0313,-3.5625 l 0,-0.0313 -73.75,0 0,73.75 -0.031,0 c -0.2098,2.3454 -1.5723,4.8796 -3.5625,6.0313 -2.1646,1.2528 -4.9854,1.2419 -7.1563,0 -6.5272,-2.2553 -12.475,-6.0313 -19.438,-6.0313 -11.184,0 -20.25,9.0662 -20.25,20.25 0,0.3495 -0.017,0.68615 0,1.0312 0.5424,10.699 9.4158,19.219 20.25,19.219 6.8396,0.23632 13.166,-3.6103 19.438,-6.0312 2.1709,-1.2418 4.9917,-1.2527 7.1563,0 1.9902,1.1518 3.3527,3.6858 3.5625,6.0312 l 0.031,0 0,67.719 67.75,0 0,-0.0313 c 2.3455,-0.20976 4.8795,-1.5723 6.0313,-3.5625 1.2527,-2.1646 1.2418,-4.9853 0,-7.1562 -2.4209,-6.2718 -6.2676,-12.598 -6.0313,-19.438 0,-10.834 8.5193,-19.708 19.219,-20.25 0.3451,-0.0175 0.6817,0 1.0312,0 11.184,0 20.25,9.0662 20.25,20.25 0,6.9621 -3.7759,12.91 -6.0312,19.438 -1.2419,2.1709 -1.2528,4.9917 0,7.1562 1.1517,1.9902 3.6858,3.3527 6.0312,3.5625 l 0,0.0313 z"
         id="path4359" />
      <path
         inkscape:connector-curvature="0"
         style="color:#000000;fill:url(#linearGradient4029)"
         d="m 551.85,464.98 0,-67.719 -0.0313,0 c -0.2098,-2.3454 -1.5723,-4.8794 -3.5625,-6.0312 -2.1646,-1.2527 -4.9854,-1.2418 -7.1562,0 -6.2718,2.4209 -12.598,6.2676 -19.438,6.0312 -10.834,0 -19.708,-8.5193 -20.25,-19.219 -0.017,-0.3451 0,-0.68175 0,-1.0312 0,-11.184 9.0663,-20.25 20.25,-20.25 6.9621,0 12.91,3.776 19.438,6.0313 2.1709,1.2419 4.9916,1.2528 7.1562,0 1.9902,-1.1517 3.3527,-3.6859 3.5625,-6.0313 l 0.0313,0 0,-73.75 -67.75,0 0,0.0313 c -2.3454,0.2098 -4.8794,1.5723 -6.0312,3.5625 -1.2527,2.1646 -1.2418,4.9854 0,7.1562 2.4209,6.2718 6.2676,12.598 6.0312,19.438 0,10.834 -8.5192,19.708 -19.219,20.25 -0.3451,0.017 -0.6818,0 -1.0313,0 -11.184,0 -20.25,-9.0663 -20.25,-20.25 0,-6.9621 3.776,-12.91 6.0313,-19.438 1.2419,-2.1709 1.2528,-4.9916 0,-7.1562 -1.1517,-1.9902 -3.6859,-3.3527 -6.0313,-3.5625 l 0,-0.0313 -73.75,0 0,73.75 -0.031,0 c -0.2098,2.3454 -1.5723,4.8796 -3.5625,6.0313 -2.1646,1.2528 -4.9854,1.2419 -7.1563,0 -6.5272,-2.2553 -12.475,-6.0313 -19.438,-6.0313 -11.184,0 -20.25,9.0662 -20.25,20.25 0,0.3495 -0.017,0.68615 0,1.0312 0.5424,10.699 9.4158,19.219 20.25,19.219 6.8396,0.23632 13.166,-3.6103 19.438,-6.0312 2.1709,-1.2418 4.9917,-1.2527 7.1563,0 1.9902,1.1518 3.3527,3.6858 3.5625,6.0312 l 0.031,0 0,67.719 67.75,0 0,-0.0313 c 2.3455,-0.20976 4.8795,-1.5723 6.0313,-3.5625 1.2527,-2.1646 1.2418,-4.9853 0,-7.1562 -2.4209,-6.2718 -6.2676,-12.598 -6.0313,-19.438 0,-10.834 8.5193,-19.708 19.219,-20.25 0.3451,-0.0175 0.6817,0 1.0312,0 11.184,0 20.25,9.0662 20.25,20.25 0,6.9621 -3.7759,12.91 -6.0312,19.438 -1.2419,2.1709 -1.2528,4.9917 0,7.1562 1.1517,1.9902 3.6858,3.3527 6.0312,3.5625 l 0,0.0313 73.75,0 z"
         id="path4025" />
      <path
         d="m 443.65,283.25 0,0.0313 c 2.3454,0.20976 4.8796,1.5723 6.0312,3.5625 1.2528,2.1646 1.2419,4.9853 0,7.1562 -2.2553,6.5273 -6.0312,12.475 -6.0312,19.438 0,11.184 9.0662,20.25 20.25,20.25 0.15886,0 0.31318,-0.002 0.46875,0 -10.7,-0.54236 -19.219,-9.4157 -19.219,-20.25 0,-6.9621 3.776,-12.91 6.0312,-19.438 1.2419,-2.1709 1.2528,-4.9917 0,-7.1562 -1.1517,-1.9902 -3.6858,-3.3527 -6.0312,-3.5625 l 0,-0.03 -1.5,0 z"
         inkscape:connector-curvature="0"
         style="color:#000000;fill:#004000"
         id="path4287" />
      <path
         inkscape:connector-curvature="0"
         style="color:#000000;fill:#ffffff;fill-opacity:0.47876"
         d="m 370.16,283 0,73.75 -0.0313,0 c -0.2098,2.3454 -1.5723,4.8795 -3.5625,6.0312 -0.7936,0.45931 -1.6568,0.7538 -2.5625,0.875 1.5656,0.21209 3.1915,-0.0815 4.5625,-0.875 1.9902,-1.1517 3.3527,-3.6858 3.5625,-6.0312 l 0.03,0 0,-73.75 -2,0 z m 114.25,0 0,0.0313 c -2.3454,0.2098 -4.8794,1.5723 -6.0312,3.5625 -1.2527,2.1646 -1.2418,4.9854 0,7.1562 2.4209,6.2718 6.2676,12.598 6.0312,19.438 0,10.834 -8.5192,19.708 -19.219,20.25 0.32449,0.0154 0.64044,0 0.96875,0 0.3495,0 0.68615,0.017 1.0312,0 10.7,-0.5424 19.219,-9.4158 19.219,-20.25 0.2364,-6.8396 -3.6104,-13.166 -6.0312,-19.438 -1.2418,-2.1709 -1.2527,-4.9916 0,-7.1562 1.1518,-1.9902 3.6858,-3.3527 6.0312,-3.5625 l 0,-0.03 -2,0 z m -144.44,73.75 c -11.184,0 -20.25,9.0662 -20.25,20.25 0,0.3495 -0.017,0.68615 0,1.0312 0.5424,10.699 9.4158,19.219 20.25,19.219 0.52157,0.018 1.0467,-0.004 1.5625,-0.0313 -10.632,-0.22885 -19.278,-8.6345 -19.812,-19.188 -0.017,-0.3451 0,-0.68175 0,-1.0312 0,-10.803 8.4694,-19.63 19.125,-20.219 -0.28652,-0.0127 -0.58508,-0.0313 -0.875,-0.0313 z m 184,0 c -0.34949,0 -0.68611,0.0138 -1.0312,0.0313 6.5552,0.32134 12.242,3.8486 18.469,6 1.375,0.78658 3.0292,1.0844 4.5938,0.875 -0.90625,-0.12277 -1.7978,-0.41968 -2.5938,-0.875 -6.5272,-2.2553 -12.475,-6.0312 -19.438,-6.0312 z M 365,390.28 c -0.3324,3.6e-4 -0.67058,0.0179 -1,0.0625 0.90592,0.12113 1.7687,0.41558 2.5625,0.875 1.9902,1.1518 3.3527,3.6858 3.5625,6.0312 l 0.0313,0 0,67.719 2,0 0,-67.719 -0.0313,0 c -0.2098,-2.3454 -1.5723,-4.8794 -3.5625,-6.0312 -1.0823,-0.62636 -2.3154,-0.93887 -3.5625,-0.9375 z m 180,0 c -1.2471,0.001 -2.5083,0.3166 -3.5938,0.9375 -5.7935,2.2363 -11.627,5.6727 -17.875,6 0.14754,0.003 0.28921,0.0313 0.4375,0.0313 6.8396,0.23632 13.166,-3.6103 19.438,-6.0312 0.79614,-0.45541 1.6872,-0.7523 2.5938,-0.875 -0.3292,-0.044 -0.6676,-0.0629 -1,-0.0625 z m -85.875,24.25 c -0.0641,0.003 -0.12358,0.0274 -0.1875,0.0313 10.828,0.40361 19.469,9.292 19.469,20.219 0,6.9621 -3.776,12.91 -6.0312,19.438 -1.2419,2.1709 -1.2528,4.9917 0,7.1562 1.1517,1.9902 3.6858,3.3527 6.0312,3.5625 l 0,0.0313 2,0 0,-0.0313 c -2.3454,-0.20976 -4.8796,-1.5723 -6.0312,-3.5625 -1.2528,-2.1646 -1.2419,-4.9853 0,-7.1562 2.2553,-6.5273 6.0312,-12.475 6.0312,-19.438 0,-11.184 -9.0662,-20.25 -20.25,-20.25 -0.3495,0 -0.68615,-0.0175 -1.0312,0 z"
         id="path4294" />
      <path
         inkscape:connector-curvature="0"
         style="color:#000000;fill:none;stroke:#000000;stroke-width:0.40000001"
         d="m 551.72,464.98 0,-67.719 -0.0313,0 c -0.2098,-2.3454 -1.5723,-4.8794 -3.5625,-6.0312 -2.1646,-1.2527 -4.9854,-1.2418 -7.1562,0 -6.2718,2.4209 -12.598,6.2676 -19.438,6.0312 -10.834,0 -19.708,-8.5193 -20.25,-19.219 -0.017,-0.3451 0,-0.68175 0,-1.0312 0,-11.184 9.0663,-20.25 20.25,-20.25 6.9621,0 12.91,3.776 19.438,6.0313 2.1709,1.2419 4.9916,1.2528 7.1562,0 1.9902,-1.1517 3.3527,-3.6859 3.5625,-6.0313 l 0.0313,0 0,-73.75 -67.75,0 0,0.0313 c -2.3454,0.2098 -4.8794,1.5723 -6.0312,3.5625 -1.2527,2.1646 -1.2418,4.9854 0,7.1562 2.4209,6.2718 6.2676,12.598 6.0312,19.438 0,10.834 -8.5192,19.708 -19.219,20.25 -0.3451,0.017 -0.6818,0 -1.0313,0 -11.184,0 -20.25,-9.0663 -20.25,-20.25 0,-6.9621 3.776,-12.91 6.0313,-19.438 1.2419,-2.1709 1.2528,-4.9916 0,-7.1562 -1.1517,-1.9902 -3.6859,-3.3527 -6.0313,-3.5625 l 0,-0.0313 -73.75,0 0,73.75 -0.031,0 c -0.2098,2.3454 -1.5723,4.8796 -3.5625,6.0313 -2.1646,1.2528 -4.9854,1.2419 -7.1563,0 -6.5272,-2.2553 -12.475,-6.0313 -19.438,-6.0313 -11.184,0 -20.25,9.0662 -20.25,20.25 0,0.3495 -0.017,0.68615 0,1.0312 0.5424,10.699 9.4158,19.219 20.25,19.219 6.8396,0.23632 13.166,-3.6103 19.438,-6.0312 2.1709,-1.2418 4.9917,-1.2527 7.1563,0 1.9902,1.1518 3.3527,3.6858 3.5625,6.0312 l 0.031,0 0,67.719 67.75,0 0,-0.0313 c 2.3455,-0.20976 4.8795,-1.5723 6.0313,-3.5625 1.2527,-2.1646 1.2418,-4.9853 0,-7.1562 -2.4209,-6.2718 -6.2676,-12.598 -6.0313,-19.438 0,-10.834 8.5193,-19.708 19.219,-20.25 0.3451,-0.0175 0.6817,0 1.0312,0 11.184,0 20.25,9.0662 20.25,20.25 0,6.9621 -3.7759,12.91 -6.0312,19.438 -1.2419,2.1709 -1.2528,4.9917 0,7.1562 1.1517,1.9902 3.6858,3.3527 6.0312,3.5625 l 0,0.0313 73.75,0 z"
         id="path4316" />
      <path
         inkscape:connector-curvature="0"
         style="color:#000000;fill:#008000"
         sodipodi:nodetypes="ccccccccccccssccccscsscsccccccccss"
         d="m 549.5,282.78 0,73.75 -0.0313,0 c -0.2098,2.3454 -1.5723,4.8795 -3.5625,6.0312 -0.77392,0.44792 -1.6493,0.71742 -2.5312,0.84375 1.586,0.22966 3.2343,-0.0389 4.625,-0.84375 1.9902,-1.1517 3.3527,-3.6858 3.5625,-6.0312 l 0.0313,0 0,-73.75 z m -30.188,73.75 c -11.184,0 -20.25,9.0662 -20.25,20.25 0,0.3495 -0.017,0.68615 0,1.0312 0.5424,10.699 9.4158,19.219 20.25,19.219 0.54231,0.0187 1.0577,-10e-4 1.5938,-0.0313 -10.603,-0.26073 -19.216,-8.6553 -19.75,-19.188 -0.017,-0.3451 0,-0.68175 0,-1.0312 0,-10.782 8.4362,-19.599 19.062,-20.219 -0.30374,-0.0143 -0.59869,-0.0313 -0.90625,-0.0313 z m 25.125,33.531 c -0.35515,3.9e-4 -0.71099,0.0429 -1.0625,0.0937 0.88218,0.12628 1.7572,0.39576 2.5312,0.84375 1.9902,1.1518 3.3527,3.6858 3.5625,6.0312 l 0.0313,0 0,67.719 2.0938,0 0,-67.719 -0.0313,0 c -0.2098,-2.3454 -1.5723,-4.8794 -3.5625,-6.0312 -1.0823,-0.62636 -2.3154,-0.93887 -3.5625,-0.9375 z"
         id="path4339" />
    </g>
    <path
       id="path4353"
       inkscape:connector-curvature="0"
       sodipodi:nodetypes="ccccscccsscccccccccccccsscccscccccccccsscccsccccccscccssccccc"
       style="color:#000000;fill:#000080;fill-opacity:0.55985"
       d="m 374.18997,221.53961 -67.7189,0.12064 6e-5,0.031 c -2.34502,0.21397 -4.87659,1.58099 -6.02484,3.57323 -1.24885,2.16683 -1.23292,4.98751 0.0127,7.15619 2.43207,6.26748 6.29004,12.58682 6.06582,19.42723 0.0193,10.83398 -8.48418,19.72314 -19.18289,20.2842 -0.34507,0.0176 -0.68175,0.001 -1.0312,0.002 -11.18398,0.0199 -20.26612,-9.03021 -20.28604,-20.21389 -0.0124,-6.96209 3.75299,-12.91671 5.99656,-19.44872 1.23803,-2.17311 1.2439,-4.99382 -0.0127,-7.15619 -1.15524,-1.98814 -3.69177,-3.34612 -6.03754,-3.55175 l -5e-5,-0.031 -73.74988,0.13138 0.13138,73.74989 -0.0313,5e-5 c -0.20558,2.34577 -1.56361,4.8824 -3.55175,6.03764 -2.16237,1.25665 -4.98308,1.25078 -7.15619,0.0128 -6.53131,-2.24367 -12.48573,-6.00907 -19.44872,-5.99667 -11.18398,0.0199 -20.23381,9.10226 -20.21389,20.28605 6.2e-4,0.3495 -0.0163,0.68623 0.002,1.03129 0.56142,10.69902 9.44992,19.2022 20.2842,19.1829 6.84001,0.22412 13.15955,-3.63375 19.42723,-6.06582 2.16868,-1.24566 4.98946,-1.26159 7.15619,-0.0128 1.99225,1.14826 8.48585,3.67059 8.69973,6.01572 l 0.0313,-6e-5 0.12069,67.74989 68.62289,-0.12224 5e-5,0.031 c 2.34577,0.20562 4.8824,1.5636 6.03754,3.55175 1.25666,2.16236 1.25078,4.98308 0.0128,7.15618 -2.24367,6.53121 -6.00897,12.48573 -5.99656,19.44872 0.0199,11.18398 9.10226,20.23381 20.28604,20.21389 0.3495,-6.2e-4 0.68618,0.0158 1.0312,-0.002 10.69801,-0.56145 19.20219,-9.45002 19.18289,-20.2842 0.22414,-6.84001 -3.63375,-13.15955 -6.06582,-19.42723 -1.24566,-2.16868 -1.26159,-4.98936 -0.0127,-7.15618 1.14825,-1.99225 3.67982,-3.35927 6.02484,-3.57324 l -5e-5,-0.031 67.71889,-0.12064 -0.12069,-67.74989 -0.0313,5e-5 c -0.21394,-2.34512 -1.58099,-4.87659 -3.57324,-6.02484 -2.16683,-1.24884 -4.98751,-1.23292 -7.15619,0.0127 -6.26748,2.43207 -12.58681,6.28993 -19.42722,6.06582 -10.83399,0.0193 -19.72315,-8.48408 -20.28421,-19.1829 -0.0181,-0.34507 -0.001,-0.6818 -0.002,-1.0313 -0.0199,-11.18398 9.03011,-20.26612 20.2139,-20.28604 6.96209,-0.0124 12.9167,3.753 19.44871,5.99666 2.17311,1.23803 4.99392,1.24391 7.15619,-0.0127 1.98814,-1.15524 3.34613,-3.69186 3.55175,-6.03763 l 0.0313,-6e-5 z" />
    <path
       id="path3971"
       d="m 373.07661,221.13738 -67.71889,0.12064 5e-5,0.031 c -2.34502,0.21398 -4.87659,1.58099 -6.02484,3.57324 -1.24884,2.16682 -1.23292,4.9875 0.0128,7.15619 2.43206,6.26747 6.29003,12.58681 6.06581,19.42722 0.0193,10.83398 -8.48417,19.72315 -19.18289,20.28421 -0.34507,0.0176 -0.68175,0.001 -1.0312,0.002 -11.18398,0.0199 -20.26612,-9.03021 -20.28604,-20.21389 -0.0124,-6.96209 3.75299,-12.91671 5.99656,-19.44871 1.23803,-2.17311 1.24391,-4.99383 -0.0127,-7.15619 -1.15524,-1.98815 -3.69176,-3.34613 -6.03753,-3.55175 l -6e-5,-0.031 -73.74988,0.13138 0.13138,73.74988 -0.0313,6e-5 c -0.20558,2.34577 -1.56361,4.88239 -3.55175,6.03763 -2.16237,1.25666 -4.98308,1.25078 -7.15619,0.0127 -6.53131,-2.24367 -12.48572,-6.00907 -19.44871,-5.99666 -11.18399,0.0199 -20.23382,9.10226 -20.2139,20.28604 6.2e-4,0.3495 -0.0163,0.68623 0.002,1.0313 0.56142,10.69901 9.44992,19.20219 20.2842,19.18289 6.84001,0.22412 13.15955,-3.63375 19.42723,-6.06581 2.16868,-1.24567 4.98946,-1.2616 7.15619,-0.0128 1.99225,1.14825 3.35926,3.67972 3.57324,6.02484 l 0.0313,-5e-5 0.12069,67.74989 73.74988,-0.13138 6e-5,0.031 c 2.34577,0.20562 4.88239,1.5636 6.03753,3.55175 1.25666,2.16236 1.25078,4.98308 0.0128,7.15619 -2.24367,6.5312 -6.00897,12.48572 -5.99656,19.44871 0.0199,11.18398 9.10226,20.23382 20.28604,20.21389 0.3495,-6.2e-4 0.68618,0.0158 1.0312,-0.002 10.69802,-0.56146 19.20219,-9.45003 19.18289,-20.28421 0.22414,-6.84001 -3.63374,-13.15955 -6.06581,-19.42722 -1.24567,-2.16869 -1.26159,-4.98936 -0.0127,-7.15619 1.14825,-1.99225 3.67982,-3.35926 6.02484,-3.57324 l -5e-5,-0.031 67.71889,-0.12064 -0.12069,-67.74989 -0.0313,6e-5 c -0.21394,-2.34513 -1.58099,-4.8766 -3.57324,-6.02485 -2.16683,-1.24884 -4.9875,-1.23292 -7.15619,0.0127 -6.26748,2.43207 -12.58681,6.28993 -19.42722,6.06582 -10.83399,0.0193 -19.72315,-8.48408 -20.28421,-19.1829 -0.0181,-0.34507 -0.001,-0.6818 -0.002,-1.0313 -0.0199,-11.18398 9.03012,-20.26611 20.2139,-20.28604 6.96209,-0.0124 12.9167,3.753 19.44871,5.99667 2.17311,1.23803 4.99393,1.2439 7.15619,-0.0127 1.98815,-1.15525 3.34613,-3.69187 3.55175,-6.03764 l 0.03,-5e-5 -0.13138,-73.74989 z"
       style="color:#000000;fill:url(#linearGradient4013);stroke:#000000;stroke-width:0.40000001"
       inkscape:connector-curvature="0" />
    <path
       id="path4330"
       style="color:#000000;fill:#9ec2e2"
       inkscape:connector-curvature="0"
       d="m 370.2507,216.93977 -67.7189,0.12064 6e-5,0.0313 c -2.34502,0.21397 -4.87659,1.58099 -6.02484,3.57323 -0.71285,1.23688 -1.00368,2.7066 -0.8989,4.12661 0.11702,-0.91686 0.4384,-1.82298 0.90157,-2.62661 1.14825,-1.99225 3.67982,-3.35926 6.02484,-3.57324 l -5e-5,-0.03 67.71889,-0.12063 -0.003,-1.5 z" />
    <path
       id="path4328"
       style="color:#000000;fill:#007bff"
       inkscape:connector-curvature="0"
       d="m 373.29273,336.84139 -0.0313,6e-5 c -0.21394,-2.34513 -1.58099,-4.8766 -3.57324,-6.02485 -2.16683,-1.24884 -4.9875,-1.23292 -7.15619,0.0127 -6.26748,2.43207 -12.58681,6.29003 -19.42722,6.06582 -10.83399,0.0193 -19.72315,-8.48408 -20.28421,-19.1829 -0.004,0.158 5.5e-4,0.30989 8.4e-4,0.46875 6.2e-4,0.3495 -0.0163,0.68618 0.002,1.0312 0.56142,10.69902 9.44993,19.2022 20.28421,19.1829 6.84001,0.22411 13.15955,-3.63385 19.42722,-6.06582 2.16869,-1.24567 4.98946,-1.26159 7.15619,-0.0127 1.99225,1.14825 3.35926,3.67982 3.57324,6.02484 l 0.03,-5e-5 -0.003,-1.5 z" />
    <path
       id="path4326"
       style="color:#000000;fill:#9ec2e2;filter:url(#filter4454)"
       inkscape:connector-curvature="0"
       d="m 633.52102,123.74517 c -0.36339,-0.0126 -0.70194,0.0216 -1.0625,0.0313 10.635,0.22528 19.277,8.6321 19.812,19.188 0.017,0.3451 0,0.68175 0,1.0312 0,10.803 -8.4382,19.661 -19.094,20.25 0.11611,0.002 0.22708,0 0.34375,0 11.184,0 20.25,-9.0662 20.25,-20.25 0,-0.3495 0.017,-0.68615 0,-1.0312 -0.5424,-10.699 -9.4158,-19.219 -20.25,-19.219 z"
       transform="matrix(0.00178143,0.99999841,-0.99999841,0.00178143,425.19358,-390.64695)" />
    <path
       id="path4312"
       style="color:#000000;fill:none;stroke:#000080;stroke-width:0.40000001"
       inkscape:connector-curvature="0"
       d="m 374.49586,223.96329 -67.7189,0.12063 6e-5,0.031 c -2.34502,0.21398 -4.87659,1.58099 -6.02485,3.57324 -1.24884,2.16683 -1.23291,4.98751 0.0128,7.15619 2.43207,6.26748 6.29003,12.58682 6.06582,19.42723 0.0193,10.83398 -8.48418,19.72314 -19.1829,20.2842 -0.34506,0.0176 -0.68174,0.001 -1.03119,0.002 -11.18399,0.0199 -20.26612,-9.03021 -20.28605,-20.2139 -0.0124,-6.96208 3.753,-12.9167 5.99657,-19.44871 1.23803,-2.17311 1.2439,-4.99382 -0.0128,-7.15619 -1.15524,-1.98814 -3.69177,-3.34613 -6.03754,-3.55175 l -5e-5,-0.031 -73.74989,0.13138 0.13138,73.74989 -0.0313,5e-5 c -0.20558,2.34577 -1.5636,4.88239 -3.55175,6.03764 -2.16236,1.25665 -4.98308,1.25078 -7.15618,0.0127 -6.53131,-2.24367 -12.48573,-6.00907 -19.44872,-5.99667 -11.18398,0.0199 -20.23381,9.10226 -20.21389,20.28605 6.2e-4,0.34949 -0.0163,0.68623 0.002,1.03129 0.56142,10.69902 9.44992,19.2022 20.2842,19.1829 6.84001,0.22411 13.15955,-3.63375 19.42723,-6.06582 2.16868,-1.24566 4.98946,-1.26159 7.15618,-0.0127 1.99225,1.14826 3.35927,3.67972 3.57324,6.02485 l 0.0313,-6e-5 0.12069,67.74989 73.74989,-0.13138 5e-5,0.031 c 2.34577,0.20562 4.8824,1.56361 6.03754,3.55175 1.25665,2.16237 1.25078,4.98308 0.0127,7.15619 -2.24367,6.53121 -6.00897,12.48573 -5.99657,19.44872 0.0199,11.18398 9.10226,20.23381 20.28605,20.21389 0.3495,-6.2e-4 0.68618,0.0158 1.0312,-0.002 10.69801,-0.56146 19.20219,-9.45002 19.18289,-20.2842 0.22414,-6.84001 -3.63375,-13.15955 -6.06582,-19.42723 -1.24566,-2.16868 -1.26159,-4.98936 -0.0127,-7.15619 1.14826,-1.99225 3.67983,-3.35926 6.02485,-3.57324 l -6e-5,-0.031 67.7189,-0.12063 -0.12069,-67.74989 -0.0313,5e-5 c -0.21394,-2.34512 -1.58099,-4.87659 -3.57324,-6.02484 -2.16683,-1.24884 -4.9875,-1.23292 -7.15619,0.0127 -6.26748,2.43206 -12.58681,6.28993 -19.42722,6.06581 -10.83399,0.0193 -19.72315,-8.48407 -20.28421,-19.18289 -0.0181,-0.34507 -0.001,-0.6818 -0.002,-1.0313 -0.0199,-11.18398 9.03012,-20.26612 20.2139,-20.28604 6.96209,-0.0124 12.9167,3.75299 19.44871,5.99666 2.17311,1.23803 4.99393,1.24391 7.15619,-0.0128 1.98815,-1.15524 3.34613,-3.69186 3.55175,-6.03763 l 0.03,-6e-5 -0.13138,-73.74988 z" />
    <path
       id="path4346"
       d="m 373.59732,402.79252 -67.71889,0.12063 5e-5,0.0313 c -2.34502,0.21398 -4.87659,1.58099 -6.02484,3.57324 -0.87212,1.51316 -1.12172,3.35771 -0.77223,5.06389 0.14963,-0.71442 0.41159,-1.42894 0.77757,-2.06389 1.14826,-1.99225 3.67983,-3.35926 6.02485,-3.57324 l -6e-5,-0.03 67.7189,-0.12064 z m -67.65977,33.30858 c 0.0215,-0.65685 -0.0171,-1.28977 -0.0659,-1.93738 -0.51374,10.34993 -8.77324,18.67865 -19.12179,19.22209 -0.34507,0.0176 -0.68175,0.001 -1.0312,0.002 -10.66498,0.019 -19.44562,-8.18917 -20.25226,-18.65195 -0.0343,0.47835 -0.0296,0.94985 -0.0287,1.43755 0.0199,11.18398 9.10226,20.23382 20.28605,20.21389 0.3495,-6.2e-4 0.68618,0.0158 1.03119,-0.002 10.69902,-0.56146 19.2022,-9.45003 19.1829,-20.28421 z m -33.60826,-25.94017 c -0.001,-1.2471 -0.28433,-2.5109 -0.91265,-3.59218 -1.15525,-1.98814 -3.69177,-3.34613 -6.03754,-3.55175 l -6e-5,-0.0313 -73.74988,0.13138 0.005,3 73.74989,-0.13138 5e-5,0.0313 c 2.34577,0.20562 4.8824,1.5636 6.03754,3.55175 0.37345,0.6426 0.60248,1.36783 0.75373,2.09246 0.10202,-0.49544 0.15393,-0.9944 0.15358,-1.50028 z"
       sodipodi:nodetypes="ccccscsccccccccscssccscccccccccccccs"
       style="color:#000000;fill:#000080;fill-opacity:0.43629001"
       inkscape:connector-curvature="0" />
  </g>
  <metadata
     id="metadata51">
    <rdf:RDF>
      <cc:Work>
        <dc:format>image/svg+xml</dc:format>
        <dc:type
           rdf:resource="http://purl.org/dc/dcmitype/StillImage" />
        <cc:license
           rdf:resource="http://creativecommons.org/publicdomain/zero/1.0/" />
        <dc:publisher>
          <cc:Agent
             rdf:about="http://openclipart.org/">
            <dc:title>Openclipart</dc:title>
          </cc:Agent>
        </dc:publisher>
        <dc:title>jigsaw-puzzle-II</dc:title>
      </cc:Work>
      <cc:License
         rdf:about="http://creativecommons.org/publicdomain/zero/1.0/">
        <cc:permits
           rdf:resource="http://creativecommons.org/ns#Reproduction" />
        <cc:permits
           rdf:resource="http://creativecommons.org/ns#Distribution" />
        <cc:permits
           rdf:resource="http://creativecommons.org/ns#DerivativeWorks" />
      </cc:License>
    </rdf:RDF>
  </metadata>
</svg>
